<svg id="Layer_1" data-name="Layer 1" xmlns="http://www.w3.org/2000/svg" viewBox="0 0 110.02 122.88"><defs><style>.cls-1{fill-rule:evenodd;}</style></defs><title>calendar-date</title><path fill="#3d5a80" class="cls-1" d="M1.87,14.69H24.53l0-.39V4.13C24.5,1.86,26.86,0,29.76,0S35,1.87,35,4.13V14.3l0,.39h38.6l0-.39V4.13C73.56,1.86,75.92,0,78.81,0s5.26,1.87,5.26,4.13V14.3l0,.39h24.11A1.87,1.87,0,0,1,110,16.56V36a1.87,1.87,0,0,1-1.87,1.87H1.87A1.89,1.89,0,0,1,0,36V16.55a1.87,1.87,0,0,1,1.87-1.86ZM14.16,96.82h13.7c.83,0,1.51.51,1.51,1.13v7.21c0,.62-.68,1.13-1.51,1.13H14.62c-.83,0-1.5-.51-1.5-1.13V98c0-.62.68-1.13,1.5-1.13Zm32.92,0H60.79c.83,0,1.5.51,1.5,1.13v7.21c0,.62-.68,1.13-1.5,1.13H47.08c-.83,0-1.51-.51-1.51-1.13V98c0-.62.68-1.13,1.51-1.13Zm32.68,0H93.47c.83,0,1.51.51,1.51,1.13v7.21c0,.62-.68,1.13-1.51,1.13H79.76c-.83,0-1.51-.51-1.51-1.13V98a1.37,1.37,0,0,1,1.51-1.13ZM14.16,76.71h13.7c.83,0,1.51.51,1.51,1.14v7.2c0,.62-.68,1.13-1.51,1.13H14.62c-.83,0-1.5-.51-1.5-1.13v-7.2a1.36,1.36,0,0,1,1.5-1.14Zm32.92,0H60.79a1.36,1.36,0,0,1,1.5,1.14v7.2c0,.62-.68,1.13-1.5,1.13H47.08c-.83,0-1.51-.51-1.51-1.13v-7.2c0-.63.68-1.14,1.51-1.14Zm32.68,0H93.47c.83,0,1.51.51,1.51,1.14v7.2c0,.62-.68,1.13-1.51,1.13H79.76c-.83,0-1.51-.51-1.51-1.13v-7.2a1.37,1.37,0,0,1,1.51-1.14ZM14.16,56.6h13.7c.83,0,1.51.51,1.51,1.14v7.2c0,.62-.68,1.14-1.51,1.14H14.62a1.36,1.36,0,0,1-1.5-1.14v-7.2a1.36,1.36,0,0,1,1.5-1.14Zm32.92,0H60.79a1.36,1.36,0,0,1,1.5,1.14v7.2a1.37,1.37,0,0,1-1.5,1.14H47.08c-.83,0-1.51-.51-1.51-1.14v-7.2c0-.63.68-1.14,1.51-1.14Zm32.68,0H93.47c.83,0,1.51.51,1.51,1.14v7.2c0,.62-.68,1.14-1.51,1.14H79.76c-.83,0-1.51-.51-1.51-1.14v-7.2a1.37,1.37,0,0,1,1.51-1.14ZM.47,42.19H109.56a.46.46,0,0,1,.46.46h0v79.77a.47.47,0,0,1-.46.46H.47a.47.47,0,0,1-.47-.46V42.66a.47.47,0,0,1,.47-.47ZM7,47.71h96.93a1,1,0,0,1,.94.94v67.78a1,1,0,0,1-.94.94H6.08a1,1,0,0,1-.94-.94V49.58A1.87,1.87,0,0,1,7,47.71Z"/></svg>