<?xml version="1.0" encoding="utf-8"?>
<!-- Generator: Adobe Illustrator 24.1.1, SVG Export Plug-In . SVG Version: 6.00 Build 0)  -->
<svg version="1.1" id="Layer_1" xmlns="http://www.w3.org/2000/svg" xmlns:xlink="http://www.w3.org/1999/xlink" x="0px" y="0px"
	 viewBox="0 0 512 512" style="enable-background:new 0 0 512 512;" xml:space="preserve">
<g>
	<path fill="#3d5a80" d="M15.99,512c-8.83,0-16-7.17-16-16s7.17-16,16-16h16v-69.33c0-14.7,11.97-26.67,26.67-26.67h58.69
		c14.7,0,26.67,11.97,26.67,26.67V480h47.98V218.67c0-14.7,11.97-26.67,26.67-26.67h58.69c14.7,0,26.67,11.97,26.67,26.67V480h48
		V314.67c0-14.68,11.95-26.65,26.63-26.67h58.71c14.7,0,26.67,11.97,26.67,26.67V480h15.98c8.83,0,16,7.17,16,16s-7.17,16-16,16
		H15.99z M432.01,480V320h-48v160H432.01z M272.01,480V224h-48.02v256H272.01z M112.01,480v-64H63.99v64H112.01z"/>
	<path fill="#3d5a80" d="M47.99,272.02c-26.48,0-48-21.52-48-48s21.52-48,48-48c2.85,0,5.74,0.26,8.59,0.79l72.22-72.16
		c-0.53-2.88-0.81-5.75-0.81-8.66c0-26.48,21.52-48,48-48s48,21.52,48,48v0.59l72.98,19.52C305.91,103.57,320.35,96,336.01,96
		c7.76,0,15.31,1.85,22.15,5.44l58.49-45.76c-0.42-2.55-0.64-5.14-0.64-7.68c0-26.48,21.55-48,48-48c26.46,0,48,21.52,48,48
		s-21.52,48-48,48c-11.77,0-22.98-4.29-31.68-11.97l-52.29,40.92c2.6,6,3.97,12.48,3.97,19.05c0,26.48-21.52,48-48,48
		c-25.49,0-46.42-19.99-47.92-45.09l-75.3-20.15c-9.07,10.91-22.45,17.26-36.8,17.26c-11.18,0-21.89-3.91-30.4-10.9l-60.53,60.46
		c7.02,8.53,10.93,19.24,10.93,30.44C95.99,250.5,74.47,272.02,47.99,272.02z M47.99,208.02c-8.83,0-16,7.17-16,16
		c0,8.83,7.17,16,16,16s16-7.17,16-16C63.99,215.19,56.82,208.02,47.99,208.02z M336.01,128c-8.81,0-16,7.17-16,16s7.17,16,16,16
		c8.83,0,16-7.17,16-16S344.84,128,336.01,128z M175.99,80.02c-8.83,0-16,7.17-16,16s7.17,16,16,16c8.83,0,16-7.17,16-16
		S184.82,80.02,175.99,80.02z M464.01,32c-8.81,0-16,7.17-16,16s7.19,16,16,16s16-7.17,16-16S472.84,32,464.01,32z"/>
</g>
</svg>
